<svg width="64" height="38" viewBox="0 0 64 38" fill="none" xmlns="http://www.w3.org/2000/svg">
<g clip-path="url(#clip0_3_307)">
<path d="M15.1318 10.0001H27.1771V10.9445H16.236V18.0521H26.5247V18.9965H16.236V26.8H27.3026V27.7444H15.1318V10.0001ZM28.2562 10.0001H29.536L35.2073 17.8036L41.0041 10.0001L48.8887 0.0878916L35.935 18.6237L42.6101 27.7444H41.2801L35.2073 19.4439L29.1094 27.7444H27.8045L34.5298 18.6237L28.2562 10.0001ZM43.0869 10.9445V10.0001H56.8135V10.9445H50.4898V27.7444H49.3856V10.9445H43.0869Z" fill="white"/>
<path d="M0.0627441 10.0001H1.44293L20.4749 38.0929L12.6099 27.7444L1.21708 11.3421L1.1669 27.7444H0.0627441V10.0001Z" fill="white"/>
<path d="M56.7024 26.515C56.9307 26.515 57.0972 26.3426 57.0972 26.1198C57.0972 25.897 56.9307 25.7246 56.7024 25.7246C56.4768 25.7246 56.3076 25.897 56.3076 26.1198C56.3076 26.3426 56.4768 26.515 56.7024 26.515ZM57.7874 25.4752C57.7874 26.1331 58.2681 26.5628 58.969 26.5628C59.7156 26.5628 60.1668 26.1198 60.1668 25.3506V22.6423H59.5652V25.3479C59.5652 25.775 59.3477 26.0031 58.9636 26.0031C58.6199 26.0031 58.3862 25.7909 58.3782 25.4752H57.7874ZM60.9536 25.4408C60.9966 26.1251 61.574 26.5628 62.4334 26.5628C63.3518 26.5628 63.9265 26.1039 63.9265 25.3718C63.9265 24.7962 63.5989 24.4779 62.804 24.2949L62.377 24.1914C61.8721 24.0747 61.668 23.9182 61.668 23.645C61.668 23.3002 61.9849 23.0747 62.4602 23.0747C62.9114 23.0747 63.2229 23.2949 63.2793 23.6476H63.8647C63.8298 23.0031 63.2551 22.5495 62.4683 22.5495C61.6223 22.5495 61.0583 23.0031 61.0583 23.6848C61.0583 24.2471 61.3779 24.5813 62.0789 24.7431L62.5784 24.8625C63.0913 24.9819 63.3169 25.1569 63.3169 25.4487C63.3169 25.7882 62.9624 26.0349 62.479 26.0349C61.9607 26.0349 61.6008 25.8041 61.5498 25.4408H60.9536Z" fill="white"/>
</g>
<defs>
<clipPath id="clip0_3_307">
<rect width="64" height="38" fill="white"/>
</clipPath>
</defs>
</svg>
