<svg width="42" height="38" viewBox="0 0 42 38" fill="none" xmlns="http://www.w3.org/2000/svg">
<g clip-path="url(#clip0_3_324)">
<path d="M20.9999 22.8068C23.0674 22.8068 24.7434 21.1024 24.7434 19C24.7434 16.8976 23.0674 15.1932 20.9999 15.1932C18.9325 15.1932 17.2565 16.8976 17.2565 19C17.2565 21.1024 18.9325 22.8068 20.9999 22.8068Z" fill="#61DAFB"/>
<path d="M21 26.7993C32.0938 26.7993 41.087 23.3074 41.087 19C41.087 14.6926 32.0938 11.2007 21 11.2007C9.90632 11.2007 0.913086 14.6926 0.913086 19C0.913086 23.3074 9.90632 26.7993 21 26.7993Z" stroke="#61DAFB"/>
<path d="M14.358 22.8996C19.9049 32.6695 27.3753 38.8437 31.0435 36.69C34.7118 34.5363 33.189 24.8703 27.6421 15.1004C22.0953 5.33046 14.6249 -0.843688 10.9566 1.31002C7.2883 3.46372 8.81117 13.1297 14.358 22.8996Z" stroke="#61DAFB"/>
<path d="M14.358 15.1004C8.81114 24.8703 7.28826 34.5363 10.9566 36.69C14.6249 38.8437 22.0952 32.6695 27.6421 22.8996C33.1889 13.1297 34.7118 3.46372 31.0435 1.31002C27.3752 -0.84369 19.9049 5.33046 14.358 15.1004Z" stroke="#61DAFB"/>
</g>
<defs>
<clipPath id="clip0_3_324">
<rect width="42" height="38" fill="white"/>
</clipPath>
</defs>
</svg>
