<svg width="38" height="38" viewBox="0 0 38 38" fill="none" xmlns="http://www.w3.org/2000/svg">
<path d="M18.601 8.60696C12.464 8.80202 10.64 13.186 10.222 15.561C10.7667 14.6806 12.483 12.749 15.01 12.749C17.955 12.749 20.197 16.036 21.565 17.062C23.2271 18.3085 26.5667 19.9544 30.951 18.62C34.447 17.556 36.0684 13.8446 36.423 12.084C34.732 14.383 32.167 15.7638 28.994 14.136C26.809 13.015 25.175 8.398 18.601 8.60696Z" fill="#07B6D5"/>
<path d="M9.91794 19.038C3.78094 19.233 1.95694 23.617 1.53894 25.992C2.08361 25.1116 3.79994 23.18 6.32694 23.18C9.27194 23.18 11.5139 26.467 12.8819 27.493C14.5439 28.7395 17.8836 30.3854 22.2679 29.051C25.7639 27.987 27.3853 24.2756 27.7399 22.515C26.0489 24.814 23.4839 26.1948 20.3109 24.567C18.1259 23.446 16.4919 18.829 9.91794 19.038Z" fill="#07B6D5"/>
</svg>
